<svg width="630" height="51" viewBox="0 0 630 51" fill="none" xmlns="http://www.w3.org/2000/svg">
<path d="M44.4772 50.21H30.8272L13.3972 24.59H23.1272C28.0272 24.59 30.6172 22.35 30.8272 17.87C30.8272 13.32 28.2372 11.01 22.9172 10.94H12.7672V50.21H0.867188V0.789999H23.8272C30.2672 0.789999 35.2372 2.54 38.6672 5.97C41.4672 8.84 42.8672 12.55 42.8672 17.17C42.8672 25.22 39.3672 30.33 32.4372 32.57L44.4772 50.21ZM64.5781 0.859998H102.658V10.87H64.5781V0.859998ZM75.2881 40.2H102.658V50.21H64.5781V20.53H88.3781V30.54H75.2881V40.2ZM170.626 50.28H160.476L137.656 20.32V50.28H125.896V0.789999H136.746L158.796 29.77V0.789999H170.626V50.28ZM209.824 50.21H190.154V0.789999H209.824C217.804 0.789999 224.174 3.17 229.074 7.93C234.044 12.69 236.494 18.5 236.494 25.43C236.494 32.36 234.044 38.24 229.074 43.07C224.174 47.83 217.804 50.21 209.824 50.21ZM209.824 40.06C218.294 40.06 223.054 35.3 224.034 25.64C224.034 16.96 219.344 12.06 209.824 10.94H202.054V40.06H209.824ZM302.482 50.49H290.092L275.812 15.35L265.522 40.62H276.372V50.49H249.422L270.492 0.859998H281.342L302.482 50.49ZM337.469 0.859998H375.549V10.87H337.469V0.859998ZM348.179 40.2H375.549V50.21H337.469V20.53H361.269V30.54H348.179V40.2ZM410.265 25.08L393.745 0.789999H407.465L417.335 16.05L427.275 0.789999H440.645L424.125 24.94L441.345 50.21H427.625L417.055 34.04L406.415 50.21H393.045L410.265 25.08ZM473.785 11.15H458.875V0.789999H500.595V11.15H485.685V50.21H473.785V11.15ZM564.692 50.21H551.042L533.612 24.59H543.342C548.242 24.59 550.832 22.35 551.042 17.87C551.042 13.32 548.452 11.01 543.132 10.94H532.982V50.21H521.082V0.789999H544.042C550.482 0.789999 555.452 2.54 558.882 5.97C561.682 8.84 563.082 12.55 563.082 17.17C563.082 25.22 559.582 30.33 552.652 32.57L564.692 50.21ZM629.513 50.49H617.123L602.843 15.35L592.553 40.62H603.403V50.49H576.453L597.523 0.859998H608.373L629.513 50.49Z" fill="#F9FF3A"/>
</svg>
